<svg width="40" height="40" viewBox="0 0 40 40" fill="none" xmlns="http://www.w3.org/2000/svg">
<circle cx="20" cy="20" r="20" fill="#48C95F"/>
<rect width="40" height="40" rx="5" fill="#F79A38"/>
<path d="M26.5119 23C27.0871 22.3913 27.1693 21.5217 26.6762 20.6522C26.2654 19.9565 25.5258 19.6087 24.704 19.7826C24.3753 19.8696 24.0466 20.0435 23.7179 20.3044C21.1704 22.1304 17.719 22.0435 15.1715 20.2174C15.0072 20.1304 14.8428 20.0435 14.6784 19.9565C13.7745 19.5217 12.8706 19.6957 12.3775 20.5652C11.8023 21.4348 11.8844 22.3913 12.624 23.1739C12.7884 23.3478 12.9527 23.4348 13.0349 23.6087L13.1171 23.6957C14.2676 24.6522 15.6646 25.2609 17.4725 25.5217L16.4042 26.6522C15.5002 27.6087 14.5141 28.6522 13.6102 29.6087C13.3636 29.8696 13.0349 30.3044 13.0349 30.913C13.0349 31.6957 13.4458 32.4783 14.1854 32.8261C14.4319 33 14.6784 33 14.925 33C15.3359 33 15.8289 32.8261 16.1576 32.3913C17.3903 31.087 18.3764 30.0435 19.3625 29C19.4447 28.9131 19.4447 28.913 19.4447 28.913C19.4447 28.913 19.5269 28.9131 19.5269 29C20.1843 29.7826 20.9239 30.4783 21.5813 31.2609C21.91 31.6087 22.2387 31.9565 22.5674 32.3044C22.9783 32.7391 23.307 32.9131 23.8001 32.9131C24.5397 33 25.3614 32.4783 25.6901 31.6957C26.0188 31 25.8545 30.1304 25.2792 29.6087C24.4575 28.7391 23.6357 27.7826 22.7318 26.913L21.3348 25.4348C22.0744 25.3478 22.8961 25.1739 23.6357 24.8261C24.8684 24.3913 25.7723 23.7826 26.5119 23Z" fill="white"/>
<path d="M19.4447 20.5652C22.9783 20.5652 25.8545 17.6087 25.8545 13.8696C25.8545 12.0435 25.1971 10.3043 23.9644 9C22.7318 7.69565 21.1704 7 19.5269 7C15.9933 7 13.1993 10.0435 13.1171 13.6956C13.1171 15.5217 13.7745 17.1739 15.0072 18.4783C16.1576 19.8696 17.719 20.5652 19.4447 20.5652ZM17.6368 11.8696C18.1299 11.3478 18.7873 11.087 19.4447 11.087C20.9239 11.087 21.9922 12.3043 21.9922 13.7826C21.9922 15.3478 20.8417 16.4783 19.4447 16.4783C17.9655 16.4783 16.8972 15.2609 16.8972 13.7826C16.8972 13.087 17.1437 12.3913 17.6368 11.8696Z" fill="white"/>
<path d="M26.5119 23C27.0871 22.3913 27.1693 21.5217 26.6762 20.6522C26.2654 19.9565 25.5258 19.6087 24.704 19.7826C24.3753 19.8696 24.0466 20.0435 23.7179 20.3044C21.1704 22.1304 17.719 22.0435 15.1715 20.2174C15.0072 20.1304 14.8428 20.0435 14.6784 19.9565C13.7745 19.5217 12.8706 19.6957 12.3775 20.5652C11.8023 21.4348 11.8844 22.3913 12.624 23.1739C12.7884 23.3478 12.9527 23.4348 13.0349 23.6087L13.1171 23.6957C14.2676 24.6522 15.6646 25.2609 17.4725 25.5217L16.4042 26.6522C15.5002 27.6087 14.5141 28.6522 13.6102 29.6087C13.3636 29.8696 13.0349 30.3044 13.0349 30.913C13.0349 31.6957 13.4458 32.4783 14.1854 32.8261C14.4319 33 14.6784 33 14.925 33C15.3359 33 15.8289 32.8261 16.1576 32.3913C17.3903 31.087 18.3764 30.0435 19.3625 29C19.4447 28.9131 19.4447 28.913 19.4447 28.913C19.4447 28.913 19.5269 28.9131 19.5269 29C20.1843 29.7826 20.9239 30.4783 21.5813 31.2609C21.91 31.6087 22.2387 31.9565 22.5674 32.3044C22.9783 32.7391 23.307 32.9131 23.8001 32.9131C24.5397 33 25.3614 32.4783 25.6901 31.6957C26.0188 31 25.8545 30.1304 25.2792 29.6087C24.4575 28.7391 23.6357 27.7826 22.7318 26.913L21.3348 25.4348C22.0744 25.3478 22.8961 25.1739 23.6357 24.8261C24.8684 24.3913 25.7723 23.7826 26.5119 23Z" fill="white"/>
</svg>
