<svg width="75" height="61" viewBox="0 0 75 61" fill="none" xmlns="http://www.w3.org/2000/svg">
<path d="M2.99355 48.3666C2.49889 48.3666 2.05089 48.2593 1.64955 48.0446C1.25289 47.8253 0.940221 47.5243 0.711555 47.1416C0.487555 46.7589 0.375555 46.3273 0.375555 45.8466C0.375555 45.3659 0.489888 44.9343 0.718555 44.5516C0.947221 44.1689 1.25989 43.8703 1.65655 43.6556C2.05789 43.4363 2.50589 43.3266 3.00055 43.3266C3.40189 43.3266 3.76822 43.3966 4.09955 43.5366C4.43089 43.6766 4.71089 43.8796 4.93955 44.1456L4.35155 44.6986C3.99689 44.3159 3.56055 44.1246 3.04255 44.1246C2.70655 44.1246 2.40555 44.1993 2.13955 44.3486C1.87355 44.4933 1.66589 44.6963 1.51655 44.9576C1.36722 45.2189 1.29255 45.5153 1.29255 45.8466C1.29255 46.1779 1.36722 46.4743 1.51655 46.7356C1.66589 46.9969 1.87355 47.2023 2.13955 47.3516C2.40555 47.4963 2.70655 47.5686 3.04255 47.5686C3.56055 47.5686 3.99689 47.3749 4.35155 46.9876L4.93955 47.5476C4.71089 47.8136 4.42855 48.0166 4.09255 48.1566C3.76122 48.2966 3.39489 48.3666 2.99355 48.3666ZM9.74894 43.3966L7.62094 47.3516C7.43427 47.7016 7.21027 47.9653 6.94894 48.1426C6.69227 48.3153 6.41227 48.4016 6.10894 48.4016C5.86627 48.4016 5.62594 48.3503 5.38794 48.2476L5.61194 47.5336C5.80327 47.5943 5.96194 47.6246 6.08794 47.6246C6.38194 47.6246 6.6246 47.4729 6.81594 47.1696L6.89294 47.0506L4.93994 43.3966H5.91294L7.36194 46.2736L8.85294 43.3966H9.74894ZM14.5818 43.3966V48.2966H13.6858V44.1666H11.1448V48.2966H10.2488V43.3966H14.5818ZM19.4985 47.5336V48.2966H15.8235V43.3966H19.4005V44.1596H16.7335V45.4336H19.0995V46.1826H16.7335V47.5336H19.4985ZM22.3889 43.3966C22.8136 43.3966 23.1822 43.4666 23.4949 43.6066C23.8122 43.7466 24.0549 43.9473 24.2229 44.2086C24.3909 44.4699 24.4749 44.7803 24.4749 45.1396C24.4749 45.4943 24.3909 45.8046 24.2229 46.0706C24.0549 46.3319 23.8122 46.5326 23.4949 46.6726C23.1822 46.8126 22.8136 46.8826 22.3889 46.8826H21.2829V48.2966H20.3729V43.3966H22.3889ZM22.3469 46.1126C22.7436 46.1126 23.0446 46.0286 23.2499 45.8606C23.4552 45.6926 23.5579 45.4523 23.5579 45.1396C23.5579 44.8269 23.4552 44.5866 23.2499 44.4186C23.0446 44.2506 22.7436 44.1666 22.3469 44.1666H21.2829V46.1126H22.3469ZM25.2028 43.3966H29.0178V44.1456H26.0988V45.3496H27.5478C28.1358 45.3496 28.5815 45.4733 28.8848 45.7206C29.1928 45.9633 29.3468 46.3156 29.3468 46.7776C29.3468 47.2629 29.1788 47.6386 28.8428 47.9046C28.5068 48.1659 28.0285 48.2966 27.4078 48.2966H25.2028V43.3966ZM27.3588 47.5966C27.7088 47.5966 27.9748 47.5289 28.1568 47.3936C28.3388 47.2583 28.4298 47.0623 28.4298 46.8056C28.4298 46.3016 28.0728 46.0496 27.3588 46.0496H26.0988V47.5966H27.3588ZM33.4171 47.1626H30.9671L30.4841 48.2966H29.5461L31.7511 43.3966H32.6471L34.8591 48.2966H33.9071L33.4171 47.1626ZM33.1161 46.4486L32.1921 44.3066L31.2751 46.4486H33.1161ZM39.8245 43.3966V48.2966H38.9145V46.1966H36.3805V48.2966H35.4705V43.3966H36.3805V45.4196H38.9145V43.3966H39.8245ZM41.066 43.3966H41.962V46.8756L44.594 43.3966H45.441V48.2966H44.545V44.8246L41.913 48.2966H41.066V43.3966ZM46.6819 43.3966H47.5779V46.8756L50.2099 43.3966H51.0569V48.2966H50.1609V44.8246L47.5289 48.2966H46.6819V43.3966ZM57.1009 47.5266V49.3396H56.2609V48.2966H52.5019V49.3396H51.6549L51.6619 47.5266H51.8719C52.1799 47.5126 52.3945 47.2863 52.5159 46.8476C52.6419 46.4043 52.7189 45.7719 52.7469 44.9506L52.8029 43.3966H56.3939V47.5266H57.1009ZM53.5449 45.0346C53.5215 45.6693 53.4702 46.1989 53.3909 46.6236C53.3115 47.0436 53.1855 47.3446 53.0129 47.5266H55.4979V44.1666H53.5799L53.5449 45.0346ZM60.0857 48.3666C59.5864 48.3666 59.1361 48.2593 58.7347 48.0446C58.3334 47.8253 58.0184 47.5243 57.7897 47.1416C57.5611 46.7543 57.4467 46.3226 57.4467 45.8466C57.4467 45.3706 57.5611 44.9413 57.7897 44.5586C58.0184 44.1713 58.3334 43.8703 58.7347 43.6556C59.1361 43.4363 59.5864 43.3266 60.0857 43.3266C60.5851 43.3266 61.0354 43.4363 61.4367 43.6556C61.8381 43.8703 62.1531 44.1689 62.3817 44.5516C62.6104 44.9343 62.7247 45.3659 62.7247 45.8466C62.7247 46.3273 62.6104 46.7589 62.3817 47.1416C62.1531 47.5243 61.8381 47.8253 61.4367 48.0446C61.0354 48.2593 60.5851 48.3666 60.0857 48.3666ZM60.0857 47.5686C60.4124 47.5686 60.7064 47.4963 60.9677 47.3516C61.2291 47.2023 61.4344 46.9969 61.5837 46.7356C61.7331 46.4696 61.8077 46.1733 61.8077 45.8466C61.8077 45.5199 61.7331 45.2259 61.5837 44.9646C61.4344 44.6986 61.2291 44.4933 60.9677 44.3486C60.7064 44.1993 60.4124 44.1246 60.0857 44.1246C59.7591 44.1246 59.4651 44.1993 59.2037 44.3486C58.9424 44.4933 58.7371 44.6986 58.5877 44.9646C58.4384 45.2259 58.3637 45.5199 58.3637 45.8466C58.3637 46.1733 58.4384 46.4696 58.5877 46.7356C58.7371 46.9969 58.9424 47.2023 59.2037 47.3516C59.4651 47.4963 59.7591 47.5686 60.0857 47.5686ZM68.0918 48.2966L68.0848 45.0486L66.4748 47.7366H66.0688L64.4588 45.0906V48.2966H63.5978V43.3966H64.3468L66.2858 46.6376L68.2038 43.3966H68.9458L68.9598 48.2966H68.0918ZM73.439 47.1626H70.989L70.506 48.2966H69.568L71.773 43.3966H72.669L74.881 48.2966H73.929L73.439 47.1626ZM73.138 46.4486L72.214 44.3066L71.297 46.4486H73.138Z" fill="#1F371D"/>
<g clip-path="url(#clip0_803_4618)">
<path fill-rule="evenodd" clip-rule="evenodd" d="M67.9068 30.4068C67.9068 47.2 54.2932 60.8136 37.5 60.8136C20.7068 60.8136 7.09323 47.2 7.09323 30.4068C7.09323 13.6136 20.7068 -1.90735e-06 37.5 -1.90735e-06C54.2932 -1.90735e-06 67.9068 13.6136 67.9068 30.4068ZM37.4016 13.7924C37.7951 13.4671 38.3635 13.4644 38.7601 13.7861L45.7839 19.4832V16.8602C45.7839 16.2681 46.2639 15.7881 46.8559 15.7881H51.1441C51.7361 15.7881 52.2161 16.2681 52.2161 16.8602V24.2269L56.1098 28.3017C56.4063 28.612 56.4892 29.0692 56.3204 29.4638C56.1517 29.8585 55.7639 30.1144 55.3347 30.1144H52.2161V39.2754V40.3475H50.072V39.2754V29.0424C50.072 28.4503 50.552 27.9703 51.1441 27.9703H52.8276L50.369 25.3974C50.1784 25.1979 50.072 24.9327 50.072 24.6568V17.9322H47.928V21.733C47.928 22.1465 47.6903 22.523 47.3171 22.7008C46.9439 22.8787 46.5017 22.8261 46.1806 22.5656L38.0913 16.0043L23.6188 27.9703H24.928C25.52 27.9703 26 28.4503 26 29.0424V39.2754V40.3475H23.8559V39.2754V30.1144H20.6398C20.1877 30.1144 19.7842 29.8308 19.6311 29.4054C19.478 28.98 19.6083 28.5043 19.9567 28.2162L37.4016 13.7924ZM33.4068 26.1186C32.8685 26.1186 32.4322 26.555 32.4322 27.0932V36.4491C32.4322 36.9874 32.8685 37.4237 33.4068 37.4237H42.7627C43.3009 37.4237 43.7373 36.9874 43.7373 36.4491V27.0932C43.7373 26.555 43.3009 26.1186 42.7627 26.1186H38.0847H33.4068ZM34.3813 30.7966L34.3813 28.0678H37.1102V30.7966H34.3813ZM34.3813 32.7458L34.3813 35.4746L37.1102 35.4746V32.7458H34.3813ZM39.0593 32.7458V35.4746L41.7881 35.4746V32.7458H39.0593ZM41.7881 30.7966V28.0678H39.0593V30.7966H41.7881Z" fill="#1F371D"/>
</g>
<g clip-path="url(#clip1_803_4618)">
<circle cx="37.5" cy="30.4068" r="30.4068" fill="#1F371D"/>
</g>
<defs>
<clipPath id="clip0_803_4618">
<rect width="60.8136" height="40.3475" fill="white" transform="translate(7.09323)"/>
</clipPath>
<clipPath id="clip1_803_4618">
<rect width="60.8136" height="8.38136" fill="white" transform="translate(7.09323 52.4322)"/>
</clipPath>
</defs>
</svg>
