<svg width="40" height="40" viewBox="0 0 40 40" fill="none" xmlns="http://www.w3.org/2000/svg">
<rect width="40" height="40" rx="5" fill="#0077FF"/>
<path d="M31.7585 26.3562C31.7585 26.2466 31.655 26.2466 31.655 26.137C31.2413 25.2603 30.3102 24.1644 29.0689 22.9589C28.4482 22.411 28.1378 21.9726 27.9309 21.7534C27.6206 21.3151 27.6206 20.9863 27.724 20.548C27.8275 20.2192 28.2413 19.6712 28.9654 18.6849C29.3792 18.137 29.5861 17.8082 29.8964 17.4795C31.4481 15.2877 32.1723 13.863 31.9654 13.2055L31.862 13.0959C31.7585 12.9863 31.655 12.8767 31.4481 12.8767C31.2412 12.7671 30.9309 12.7671 30.6206 12.8767H26.6896C26.5861 12.8767 26.5861 12.8767 26.3792 12.8767C26.2758 12.8767 26.1723 12.8767 26.1723 12.8767H26.0689H25.9654L25.862 12.9863C25.7585 13.0959 25.7585 13.0959 25.7585 13.2055C25.3447 14.411 24.8275 15.3973 24.3102 16.4931C23.9999 17.0411 23.6896 17.589 23.3792 18.0274C23.0689 18.4658 22.862 18.7945 22.6551 19.0137C22.4482 19.2329 22.2413 19.3425 22.1378 19.5616C22.0344 19.6712 21.8275 19.7808 21.8275 19.6712C21.7241 19.6712 21.6206 19.6712 21.6206 19.5616C21.5172 19.4521 21.4137 19.3425 21.3103 19.2329C21.2068 19.1233 21.2068 18.9041 21.1034 18.6849C21.1034 18.4657 21.1034 18.2466 21.1034 18.137C21.1034 18.0274 21.1034 17.6986 21.1034 17.4795C21.1034 17.1507 21.1034 16.9315 21.1034 16.8219C21.1034 16.4931 21.1034 16.0548 21.1034 15.6164C21.1034 15.1781 21.1034 14.8493 21.1034 14.6301C21.1034 14.411 21.1034 14.0822 21.1034 13.863C21.1034 13.5342 21.1034 13.3151 21.1034 13.2055C21.1034 13.0959 20.9999 12.8767 20.9999 12.7671C20.8965 12.6575 20.793 12.5479 20.6896 12.4383C20.5861 12.3288 20.3792 12.3288 20.2758 12.2192C19.7586 12.1096 19.1379 12 18.4137 12C16.7586 12 15.6207 12.1096 15.2069 12.3288C15 12.4384 14.7931 12.5479 14.6896 12.7671C14.4827 12.9863 14.4827 13.0959 14.5862 13.0959C15.1034 13.2055 15.5172 13.4246 15.7241 13.7534L15.8276 13.9726C15.931 14.0822 15.931 14.3014 16.0344 14.6301C16.1379 14.9589 16.1379 15.2877 16.1379 15.726C16.1379 16.3836 16.1379 17.0411 16.1379 17.4795C16.1379 18.0274 16.0344 18.3562 16.0344 18.6849C16.0344 19.0137 15.931 19.2329 15.8276 19.3425C15.7241 19.5616 15.7241 19.6712 15.6206 19.6712C15.6206 19.6712 15.6206 19.7808 15.5172 19.7808C15.4137 19.7808 15.3103 19.8904 15.1034 19.8904C15 19.8904 14.7931 19.7808 14.6896 19.6712C14.4827 19.5616 14.2758 19.3425 14.1724 19.1233C13.9655 18.9041 13.7586 18.5753 13.5517 18.137C13.3448 17.6986 13.0344 17.2603 12.8275 16.6027L12.6207 16.1644C12.5172 15.9452 12.3103 15.5068 12.1034 14.9589C11.8965 14.411 11.6896 13.9726 11.4827 13.4247C11.3793 13.2055 11.2759 13.0959 11.1724 12.9863H11.0689C11.0689 12.9863 10.9655 12.8767 10.862 12.8767C10.7586 12.8767 10.6552 12.7671 10.5517 12.7671H6.82759C6.41379 12.7671 6.2069 12.8767 6.10345 12.9863L6 13.0959C6 13.0959 6 13.2055 6 13.3151C6 13.4247 6.00001 13.5342 6.10345 13.7534C6.62069 15.0685 7.24138 16.3836 7.86206 17.6986C8.48275 18.9041 9.10344 20 9.51723 20.7671C10.0345 21.5343 10.4483 22.3014 10.9655 22.9589C11.4827 23.6164 11.7931 24.0548 11.8965 24.274C12.1034 24.4932 12.2069 24.6027 12.3103 24.7123L12.6207 25.0411C12.8276 25.2603 13.1379 25.589 13.5517 25.9178C13.9655 26.2466 14.4827 26.5753 15 26.9041C15.5172 27.2329 16.1379 27.4521 16.7586 27.6712C17.4827 27.8904 18.1034 28 18.7241 27.8904H20.2758C20.5861 27.8904 20.793 27.7808 20.9999 27.5617L21.1034 27.4521C21.1034 27.3425 21.2068 27.3425 21.2068 27.2329C21.2068 27.1233 21.2068 27.0137 21.2068 26.7945C21.2068 26.3562 21.2068 26.0274 21.3103 25.6986C21.4137 25.3699 21.4137 25.1507 21.5172 24.9315C21.6206 24.7123 21.7241 24.6027 21.8275 24.4932C21.931 24.3836 22.0344 24.274 22.0344 24.274H22.1378C22.3447 24.1644 22.6551 24.274 22.862 24.4932C23.1723 24.7123 23.4827 25.0411 23.6896 25.3699C23.8965 25.6986 24.2068 26.0274 24.6206 26.4658C25.0344 26.9041 25.3447 27.2329 25.5516 27.3425L25.862 27.5617C26.0689 27.6712 26.2758 27.7808 26.5861 27.8904C26.8965 28 27.1033 28 27.3102 28L30.8275 27.8904C31.1378 27.8904 31.4481 27.7808 31.655 27.6712C31.8619 27.5617 31.9654 27.4521 31.9654 27.2329C31.9654 27.1233 31.9654 26.9041 31.9654 26.7945C31.7585 26.5754 31.7585 26.4658 31.7585 26.3562Z" fill="white"/>
</svg>
